<svg width="103" height="120" viewBox="0 0 103 120" fill="none" xmlns="http://www.w3.org/2000/svg">
<path d="M36.2692 76.9677L46.0744 73.228L49.8313 83.0783C50.0479 83.6461 50.5339 84.0681 51.1265 84.2029C51.7875 84.3533 52.4744 84.1202 52.9597 83.6468C53.515 83.1051 54.2952 82.4363 55.0196 82.1406C58.2579 80.8185 61.9476 82.533 63.1941 85.8012C64.4405 89.0693 62.8297 92.8055 59.5335 93.9757C58.7989 94.2364 57.7764 94.2579 57.0025 94.2241C56.3198 94.1943 55.6469 94.4801 55.2507 95.0368C54.9009 95.5285 54.8156 96.1609 55.0227 96.7277L58.6443 106.639L33.7072 116.15C31.5151 116.986 29.0807 116.917 26.9395 115.958C24.7983 114.999 23.1257 113.229 22.2897 111.037L12.721 85.949L22.54 82.204C22.8045 82.1032 23.0888 82.0653 23.3705 82.0933C24.489 82.2047 25.2406 83.2975 25.1429 84.4172C25.0743 85.2038 25.0866 86.0575 25.3268 86.6871C26.5578 89.9148 30.3755 91.5321 33.5012 90.3477C36.7721 89.1083 38.4577 85.5709 37.1618 82.1732C36.9451 81.6049 36.3557 80.9464 35.7522 80.3789C34.9275 79.6034 34.7865 78.2882 35.5521 77.4543C35.7501 77.2387 35.9956 77.0721 36.2692 76.9677Z" fill="#E98EEB" stroke="black" stroke-width="3" stroke-linejoin="round"/>
<path d="M49.8141 83.0333L46.0744 73.2281L55.9247 69.4712C56.4925 69.2546 56.9145 68.7686 57.0493 68.176C57.1997 67.515 56.9666 66.828 56.4932 66.3428C55.9515 65.7875 55.2828 65.0073 54.987 64.2829C53.6649 61.0446 55.3794 57.3549 58.6476 56.1084C61.9157 54.8619 65.6519 56.4728 66.8221 59.769C67.0829 60.5036 67.1044 61.5261 67.0705 62.3C67.0407 62.9827 67.3265 63.6556 67.8832 64.0518C68.3749 64.4016 69.0073 64.4869 69.5741 64.2798L79.4855 60.6582L88.9965 85.5953C89.8325 87.7874 89.7636 90.2218 88.8047 92.363C87.8459 94.5042 86.0757 96.1768 83.8837 97.0128L58.7954 106.581L55.0504 96.7625C54.9496 96.498 54.9117 96.2136 54.9397 95.932C55.0511 94.8135 56.1439 94.0619 57.2636 94.1596C58.0502 94.2282 58.9039 94.2159 59.5335 93.9757C62.7612 92.7447 64.3785 88.927 63.1941 85.8012C61.9547 82.5304 58.4173 80.8448 55.0196 82.1407C54.4513 82.3574 53.7928 82.9468 53.2253 83.5503C52.4498 84.375 51.1346 84.516 50.3007 83.7504C50.0851 83.5524 49.9185 83.3069 49.8141 83.0333Z" fill="#769FDE" stroke="black" stroke-width="3" stroke-linejoin="round"/>
<path d="M42.3347 63.4228L46.0744 73.228L36.2242 76.9849C35.6563 77.2015 35.2343 77.6875 35.0995 78.2801C34.9492 78.9411 35.1823 79.6281 35.6556 80.1133C36.1974 80.6686 36.8661 81.4488 37.1619 82.1732C38.484 85.4115 36.7695 89.1012 33.5013 90.3477C30.2331 91.5942 26.497 89.9834 25.3268 86.6871C25.066 85.9525 25.0445 84.93 25.0783 84.1561C25.1082 83.4734 24.8224 82.8005 24.2657 82.4044C23.774 82.0545 23.1415 81.9692 22.5747 82.1763L12.6634 85.7979L3.15237 60.8608C2.31632 58.6687 2.3853 56.2343 3.34414 54.0931C4.30298 51.9519 6.07314 50.2793 8.2652 49.4433L33.3534 39.8746L37.0984 49.6936C37.1993 49.9581 37.2372 50.2425 37.2091 50.5241C37.0977 51.6426 36.005 52.3942 34.8852 52.2965C34.0986 52.2279 33.245 52.2403 32.6154 52.4804C29.3876 53.7114 27.7704 57.5292 28.9548 60.6549C30.1942 63.9257 33.7315 65.6114 37.1293 64.3155C37.6976 64.0987 38.3561 63.5093 38.9236 62.9058C39.6991 62.0811 41.0143 61.9401 41.8481 62.7057C42.0638 62.9037 42.2304 63.1492 42.3347 63.4228Z" fill="#74DA91" stroke="black" stroke-width="3" stroke-linejoin="round"/>
<path d="M71.7399 38.6841L61.3733 37.053L63.0119 26.6387C63.1064 26.0384 62.8946 25.4305 62.4475 25.0189C61.9487 24.5598 61.2368 24.4204 60.5805 24.5898C59.8293 24.7837 58.8199 24.976 58.0443 24.8723C54.5773 24.4091 52.2287 21.0868 52.7724 17.6316C53.316 14.1763 56.5714 11.7358 60.0131 12.3596C60.7802 12.4987 61.6779 12.9884 62.3326 13.4026C62.91 13.7679 63.636 13.8547 64.2565 13.5686C64.8045 13.316 65.193 12.8097 65.2952 12.215L67.0816 1.815L93.4465 5.96344C95.7641 6.3281 97.8419 7.59848 99.2228 9.4951C100.604 11.3917 101.175 13.7592 100.81 16.0768L96.6364 42.6015L86.2552 40.9681C85.9755 40.9241 85.71 40.8156 85.4796 40.6512C84.5646 39.9983 84.4559 38.6765 85.0974 37.7536C85.5481 37.1053 85.9619 36.3585 86.0666 35.6928C86.6036 32.2803 84.0955 28.9787 80.7947 28.452C77.3406 27.9009 74.1192 30.1317 73.5539 33.724C73.4594 34.3248 73.6433 35.1892 73.8847 35.9817C74.2146 37.0646 73.6829 38.2758 72.604 38.6185C72.325 38.7072 72.0292 38.7296 71.7399 38.6841Z" fill="#F7F3A2" stroke="black" stroke-width="3" stroke-linejoin="round"/>
</svg>
